<svg xmlns="http://www.w3.org/2000/svg" width="41.809" height="39.813" viewBox="0 0 41.809 39.813">
    <g transform="translate(0 -11.714)">
        <path fill="#666666"
              d="M38.633,24.366l-10.2-.733a.546.546,0,0,1-.477-.349l-3.885-9.457a3.418,3.418,0,0,0-6.322.009L13.857,23.3a.571.571,0,0,1-.477.349L3.2,24.383A3.366,3.366,0,0,0,.191,26.692a3.339,3.339,0,0,0,1.014,3.689L9.086,36.89a.566.566,0,0,1,.187.562l-2.4,9.832a3.323,3.323,0,0,0,.537,2.905,3.4,3.4,0,0,0,2.684,1.338,3.237,3.237,0,0,0,1.8-.545L20.5,45.623a.562.562,0,0,1,.588,0l8.7,5.342a3.256,3.256,0,0,0,1.815.562,3.342,3.342,0,0,0,2.582-1.261,3.453,3.453,0,0,0,.656-2.948L32.43,37.461a.574.574,0,0,1,.187-.571l8-6.526a3.419,3.419,0,0,0-1.985-6Zm.656,4.388-7.983,6.518a2.655,2.655,0,0,0-.895,2.684l2.411,9.84a1.346,1.346,0,0,1-.256,1.167,1.254,1.254,0,0,1-.954.486,1.188,1.188,0,0,1-.682-.23L22.2,43.851a2.651,2.651,0,0,0-1.389-.392,2.612,2.612,0,0,0-1.4.4l-8.648,5.376a1.265,1.265,0,0,1-1.687-.307A1.209,1.209,0,0,1,8.9,47.812l2.411-9.866a2.661,2.661,0,0,0-.886-2.667l-7.864-6.5a1.323,1.323,0,0,1,.784-2.317l10.2-.733A2.64,2.64,0,0,0,15.8,24.093l3.894-9.466a1.324,1.324,0,0,1,2.454,0l3.894,9.466A2.64,2.64,0,0,0,28.3,25.729l10.215.741a1.283,1.283,0,0,1,1.15.895A1.313,1.313,0,0,1,39.289,28.754Z"/>
    </g>
</svg>